<?xml version="1.0" encoding="utf-8"?>
<!-- Generator: Adobe Illustrator 19.2.1, SVG Export Plug-In . SVG Version: 6.00 Build 0)  -->
<svg version="1.1" id="Capa_1" xmlns="http://www.w3.org/2000/svg" xmlns:xlink="http://www.w3.org/1999/xlink" x="0px" y="0px"
	 viewBox="0 0 512 512" style="enable-background:new 0 0 512 512;" xml:space="preserve">
<style type="text/css">
	.st0{fill:#FFFFFF;}
</style>
<path class="st0" d="M256,512c-23.6,0-46.3-3.1-68.1-9.2c-21.8-6.1-42.2-14.8-61.2-25.9S90.5,452.5,75,437
	c-15.5-15.5-28.8-32.8-39.9-51.7C24,366.3,15.4,345.9,9.2,324.1C3.1,302.3,0,279.6,0,256s3.1-46.3,9.2-68.1s14.8-42.2,25.9-61.2
	S59.5,90.5,75,75s32.8-28.8,51.7-39.9s39.3-19.7,61.2-25.9S232.4,0,256,0c35.2,0,68.4,6.7,99.6,20.2S414,52,437,75
	c23,23,41.3,50.2,54.8,81.4S512,220.8,512,256c0,23.6-3.1,46.3-9.2,68.1c-6.1,21.8-14.8,42.2-25.9,61.2
	c-11.1,18.9-24.4,36.2-39.9,51.7c-15.5,15.5-32.8,28.8-51.7,39.9c-18.9,11.1-39.3,19.7-61.2,25.9C302.3,508.9,279.6,512,256,512z
	 M430.9,105.8H85.2c-3.4,0-6.3,1.1-8.8,3.3c-2.4,2.2-3.6,5.2-3.6,9.1v38.7c0,1.9,0.7,2.9,2.2,2.9l181.6,103.6l1.5,0.7
	c1,0,1.7-0.2,2.2-0.7L436,159.7c1-0.5,1.7-0.7,2.2-0.7c0.5,0,1.2-0.2,2.2-0.7c1.9,0,2.9-1,2.9-2.9v-37.2c0-3.9-1.2-6.9-3.7-9.1
	C437.2,106.9,434.3,105.8,430.9,105.8z M182.9,261.1c0.5-0.5,0.7-1.2,0.7-2.2c0-1.5-0.5-2.2-1.5-2.2L77.9,196.9
	c-1.5-0.5-2.7-0.5-3.6,0c-1,0-1.5,0.7-1.5,2.2v156.8c0,1.5,0.7,2.4,2.2,2.9h1.5c1,0,1.5-0.2,1.5-0.7L182.9,261.1z M309.8,272.8
	c-0.5-1.5-1.7-1.7-3.7-0.7l-40.1,23.3c-4.9,2.9-10,2.9-15.3,0l-35-19.7c-1.5-1-2.7-1-3.6,0l-133.5,124c-0.5,0.5-0.7,1.5-0.7,2.9
	c0,0.5,0.5,1.2,1.5,2.2c2.9,1,4.9,1.5,5.8,1.5h342c1,0,1.9-0.5,2.9-1.5c0-1.9-0.2-3.2-0.7-3.6L309.8,272.8z M441.1,194h-2.9
	L339,253.1c-1,0-1.5,0.7-1.5,2.2c-0.5,0.5-0.2,1.2,0.7,2.2l99.2,107.2c1,1,1.7,1.5,2.2,1.5h1.5c1.5-1.5,2.2-2.4,2.2-2.9V196.9
	C443.3,196,442.6,195,441.1,194z"/>
</svg>
