<?xml version="1.0" encoding="utf-8"?>
<!-- Generator: Adobe Illustrator 19.2.1, SVG Export Plug-In . SVG Version: 6.00 Build 0)  -->
<svg version="1.1" id="Capa_1" xmlns="http://www.w3.org/2000/svg" xmlns:xlink="http://www.w3.org/1999/xlink" x="0px" y="0px"
	 viewBox="0 0 275.1 275.1" style="enable-background:new 0 0 275.1 275.1;" xml:space="preserve">
<style type="text/css">
	.st0{fill:#FFFFFF;}
</style>
<g>
	<path class="st0" d="M137.5,44.2c-7.2,0-13.1,5.9-13.1,13.1c0,7.2,5.9,13.1,13.1,13.1s13.1-5.9,13.1-13.1
		C150.6,50,144.8,44.2,137.5,44.2z"/>
	<path class="st0" d="M137.5,0C94.1,0,58.8,39.1,58.8,87.3v100.5c0,48.1,35.3,87.3,78.8,87.3s78.8-39.1,78.8-87.3V87.3
		C216.3,39.1,181,0,137.5,0z M201.3,187.8c0,39.8-28.6,72.3-63.8,72.3c-35.2,0-63.8-32.4-63.8-72.3V87.3c0-39.8,28.6-72.3,63.8-72.3
		s63.8,32.4,63.8,72.3V187.8z"/>
</g>
</svg>
